<svg xmlns="http://www.w3.org/2000/svg" viewBox="0 0 100 100">
  <!-- Outer glowing circle -->
  <circle cx="50" cy="50" r="48" fill="#1C1242" stroke="#EAB308" stroke-width="2.5" />
  <circle cx="50" cy="50" r="44" fill="none" stroke="#5D57A5" stroke-width="1" opacity="0.5" />
  
  <!-- Stylized Tooth Icon in Center -->
  <path d="M50,22 C44.5,22 41,25 39,30 C37.8,33 37.8,37.5 37.4,42 C37,45.5 35.5,49 33,51.5 C31,53.5 29,56.5 29,61 C29,71 35.5,80 43.5,80 C46.5,80 48,77 50,74 C52,77 53.5,80 56.5,80 C64.5,80 71,71 71,61 C71,56.5 69,53.5 67,51.5 C64.5,49 63,45.5 62.6,42 C62.2,37.5 62.2,33 61,30 C59,25 55.5,22 50,22 Z" fill="#FFFFFF" />
  
  <!-- Tooth inner shadow & premium detail -->
  <path d="M50,26 C47,26 45,28 43,32 C41.5,35 41.5,38 41.1,43 C40.8,46 39.5,49 37.5,51 C36,52.5 34.5,55 34.5,59 C34.5,67 39.5,74 45.5,74 C47.5,74 48.5,72 50,69" fill="none" stroke="#DFDBF2" stroke-width="1.5" stroke-linecap="round" />
  
  <!-- Sparkle / Star (representing Mithra's / Shine) -->
  <path d="M60,33 L61,36 L64,37 L61,38 L60,41 L59,38 L56,37 L59,36 Z" fill="#EAB308" />
  <path d="M40,43 L40.5,45 L42.5,45.5 L40.5,46 L40,48 L39.5,46 L37.5,45.5 L39.5,45 Z" fill="#EAB308" />
</svg>
